<svg width="512" height="512" viewBox="0 0 512 512" fill="none" xmlns="http://www.w3.org/2000/svg">
<path d="M508.771 90.2431L388.264 221.015C387.14 222.234 385.746 223.172 384.193 223.752C382.64 224.333 380.973 224.54 379.325 224.357C377.678 224.174 376.097 223.605 374.709 222.698C373.322 221.79 372.167 220.569 371.338 219.133L318.424 127.413C317.596 125.975 317.119 124.363 317.029 122.707C316.939 121.051 317.239 119.396 317.905 117.878C318.572 116.359 319.586 115.018 320.866 113.964C322.145 112.91 323.655 112.171 325.272 111.808L498.693 72.7643C508.793 70.4698 515.799 82.6172 508.771 90.2431Z" fill="#F6E05E"/>
<path d="M437.716 452.984C437.716 452.984 420.482 42.0727 182.211 56.3196C-56.0601 70.5665 9.12735 449.235 9.12735 452.984H437.716Z" fill="#38B2AC"/>
<g filter="url(#filter0_d)">
<path d="M260.885 258.114C284.035 248.051 293.302 218.011 281.586 191.018C269.869 164.025 241.604 150.301 218.454 160.365C195.305 170.428 186.037 200.468 197.754 227.461C209.471 254.454 237.736 268.178 260.885 258.114Z" fill="black"/>
</g>
<path d="M259.875 204.624C265.936 201.989 268.362 194.124 265.295 187.057C262.227 179.989 254.826 176.396 248.765 179.031C242.704 181.666 240.278 189.531 243.346 196.598C246.413 203.665 253.814 207.259 259.875 204.624Z" fill="white"/>
<defs>
<filter id="filter0_d" x="177.681" y="146.064" width="123.978" height="134.351" filterUnits="userSpaceOnUse" color-interpolation-filters="sRGB">
<feFlood flood-opacity="0" result="BackgroundImageFix"/>
<feColorMatrix in="SourceAlpha" type="matrix" values="0 0 0 0 0 0 0 0 0 0 0 0 0 0 0 0 0 0 127 0"/>
<feOffset dy="4"/>
<feGaussianBlur stdDeviation="7.5"/>
<feColorMatrix type="matrix" values="0 0 0 0 0 0 0 0 0 0 0 0 0 0 0 0 0 0 0.6 0"/>
<feBlend mode="normal" in2="BackgroundImageFix" result="effect1_dropShadow"/>
<feBlend mode="normal" in="SourceGraphic" in2="effect1_dropShadow" result="shape"/>
</filter>
</defs>
</svg>
